<svg width="256" height="22" xmlns="http://www.w3.org/2000/svg"><path d="M255.874 20.483c0 .843-.59 1.517-1.35 1.517-.758 0-1.348-.59-1.348-1.517 0-.843.59-1.517 1.35-1.517.758 0 1.348.674 1.348 1.517zm-22.422-5.31h3.625l-1.855-8.935-1.77 8.934zm13.15 6.068h1.264c2.697 0 3.456-3.202 3.793-6.573h.505v7.164h-16.1v-.42l.674-.084c1.348-.253 1.348-.59 1.01-2.53l-.59-2.865h-3.876l-.422 2.108c-.506 2.445-.253 3.035.76 3.203l.673.086v.42h-4.383v-.42l.506-.17c.843-.252 1.095-.758 1.517-2.865L235.812 0h.927l4.045 18.966c.422 1.938.59 2.36 1.686 2.36 1.013 0 1.35-.506 1.35-1.433V2.107c0-.843-.253-1.18-.927-1.348l-.675-.17V.17h6.238v.504l-.843.17c-.59.083-.927.42-.927 1.263V21.24h-.084zM218.954.76l-.42-.17V.17h4.13l5.646 14.328V4.13c0-2.36.085-3.12-1.6-3.456l-.507-.168V.17h4.636v.42l-.422.17c-1.35.336-1.265 1.432-1.265 3.623v17.533h-1.096l-7.08-17.364V17.87c0 2.528 0 3.287 2.023 3.54v.42h-4.552v-.42l.59-.084c1.18-.253 1.096-1.35 1.096-3.625V2.614c-.506-1.096-.674-1.686-1.18-1.854zm-8.598 9.692h1.012c1.77 0 2.613-.506 2.613-4.636 0-4.214-1.18-5.057-2.444-5.057h-1.18v9.692zm-4.383 10.958l.675-.17c.59-.167.927-.504.927-1.347V2.107c0-1.01-.506-1.433-1.602-1.433-1.348 0-1.77.59-1.77 2.445v13.654c0 3.372-1.18 5.226-4.13 5.226-3.035 0-4.805-1.854-4.805-5.142V2.108c0-.844-.253-1.18-.843-1.35L193.75.59V.17h6.24v.42l-.844.17c-.675.167-1.012.42-1.012 1.263v15.004c0 3.034.843 3.877 2.53 3.877 1.853 0 2.696-1.096 2.696-4.13V4.214c0-2.612 0-3.287-1.18-3.54l-.59-.168V.17h10.368c2.697 0 5.142 1.684 5.142 5.225 0 2.78-1.265 4.636-3.878 5.394 2.866.505 2.866 1.854 3.12 5.478l.168 2.782c.084 1.517.168 1.854.59 1.854.505 0 .674-1.096.674-2.107v-.506h.506v.76c0 1.77-.337 2.95-2.192 2.95-1.77 0-2.613-1.01-2.697-4.636l-.168-4.046c-.084-1.94-.506-2.192-1.433-2.192h-1.434v8.767c0 .843.253 1.264.928 1.348l.674.17v.42h-6.07v-.42h.085zM187.935.76c-1.602 0-2.36 1.263-2.36 10.114 0 9.187.758 10.452 2.36 10.452 1.6 0 2.36-1.265 2.36-10.537.084-8.767-.674-10.03-2.36-10.03zm0 21.24c-3.71 0-5.48-4.973-5.48-11.042 0-5.985 1.77-10.958 5.48-10.958 3.71 0 5.48 4.973 5.48 10.958.083 6.07-1.603 11.042-5.48 11.042zm-7.333-5.142c0 3.372-1.686 5.142-4.3 5.142-2.36 0-3.708-1.94-3.708-4.046 0-1.602 1.264-2.444 2.19-2.36.676.084 1.35.59 1.266 1.686-.084 1.6-1.77 1.517-1.855 2.528-.084.59.76 1.518 1.77 1.518 1.77 0 1.77-2.276 1.77-3.962V2.107c0-.843-.252-1.096-1.01-1.264l-.76-.17V.17h6.238v.42l-.674.17c-.59.167-.844.42-.844 1.347v14.75h-.084zm-17.28 3.035c0 1.01.253 1.18.927 1.348l1.01.254v.422h-6.49v-.422l.843-.168c.59-.17.927-.506.927-1.35V.76h-.758c-1.94 0-2.782 3.202-2.95 6.573h-.506V.17h11.126v7.163h-.506c-.253-3.37-1.01-6.574-2.95-6.574h-.674v19.133zm-14.077 1.348h2.192c2.866 0 3.37-3.202 3.71-6.573h.504v7.164H144.78v-.42l.674-.17c.59-.167.927-.504.927-1.347v-17.7c0-.844-.254-1.182-.928-1.35l-.674-.17V.17h10.536v7.163h-.506c-.337-3.37-1.01-6.574-3.456-6.574h-2.19v9.44h1.01c1.35-.085 1.855-1.265 2.192-3.962h.506v8.766h-.506c-.253-3.456-.843-3.962-2.276-4.046h-1.01V21.24h.167zm-11.716 0h2.19c2.866 0 3.372-3.202 3.71-6.573h.505v7.164H133.06v-.42l.676-.17c.59-.167.927-.504.927-1.347v-17.7c0-.844-.253-1.182-.927-1.35l-.675-.17V.17H143.6v7.163h-.506c-.337-3.37-1.012-6.574-3.456-6.574h-2.192v9.44h1.012c1.35-.085 1.854-1.265 2.192-3.962h.505v8.766h-.505c-.253-3.456-.843-3.962-2.276-4.046h-1.012V21.24h.17zm-12.56-10.788h1.01c1.77 0 2.614-.506 2.614-4.636 0-4.214-1.18-5.057-2.445-5.057h-1.265v9.692h.084zM120.5 21.41l.674-.17c.59-.167.927-.504.927-1.347V2.107c0-.843-.252-1.18-.927-1.348l-.674-.17V.17h5.985c2.697 0 5.14 1.684 5.14 5.225 0 2.78-1.263 4.636-3.876 5.394 2.867.505 2.867 1.854 3.12 5.478l.168 2.782c.085 1.517.17 1.854.59 1.854.506 0 .675-1.096.675-2.107v-.506h.505v.76c0 1.77-.337 2.95-2.19 2.95-1.77 0-2.614-1.01-2.698-4.636l-.17-4.046c-.083-1.94-.505-2.192-1.432-2.192H124.8v8.767c0 .843.254 1.264.928 1.348l.674.17v.42h-6.07v-.42h.17zm-4.805-1.517c0 .843.253 1.18.928 1.348l.842.17v.42h-6.32v-.42l.842-.17c.59-.167.926-.504.926-1.347V.76h-.675c-1.937 0-2.78 3.202-2.95 6.573h-.505V.17h11.127v7.163h-.59c-.253-3.37-1.012-6.574-2.95-6.574h-.675v19.133zM104.065 22c-1.854 0-2.444-1.264-3.034-1.264-.337 0-.758.084-1.095 1.095h-.337v-7.163h.505c.338 4.046 1.855 6.574 3.962 6.574 1.433 0 2.36-1.263 2.36-3.623 0-4.89-6.996-6.996-6.996-12.475 0-2.95 1.516-5.142 4.214-5.142 1.77 0 2.107 1.096 2.866 1.096.42 0 .674-.337.842-1.012h.338V7.25h-.506c-.337-3.625-1.35-6.576-3.625-6.576-1.602 0-1.855 1.602-1.855 2.613 0 4.72 6.996 6.322 6.996 12.813 0 3.456-1.853 5.9-4.635 5.9zm-15.762-.76h1.264c2.697 0 3.456-3.202 3.793-6.573h.506v7.164h-10.03v-.42l.674-.17c.59-.167.927-.504.927-1.347V2.107c0-.843-.253-1.18-.927-1.348l-.675-.17V.17h6.238v.504l-.843.17c-.59.083-.927.42-.927 1.263V21.24zm-23.94-6.068h3.54l-1.77-8.934-1.77 8.934zm13.235 6.07h1.264c2.697 0 3.456-3.204 3.793-6.575h.506v7.164h-16.1v-.42l.676-.084c1.348-.253 1.348-.59 1.01-2.53l-.59-2.865H64.28l-.422 2.108c-.506 2.445-.253 3.035.76 3.203l.673.086v.42H60.91v-.42l.506-.17c.843-.252 1.096-.758 1.517-2.865L66.725 0h.927l4.047 18.966c.422 1.938.59 2.36 1.77 2.36 1.012 0 1.35-.506 1.35-1.433V2.107c0-.843-.254-1.18-.928-1.348l-.675-.17V.17h6.237v.504l-.843.17c-.59.083-.928.42-.928 1.263V21.24h-.084zM46.83 3.033C46.41 1.18 46.158.927 45.568.76l-.59-.17V.17h5.9v.42l-.505.084c-1.012.253-.928 1.265-.59 2.613l2.528 12.307 1.855-9.862-.675-3.372c-.252-1.18-.337-1.6-1.01-1.77l-.423-.084V.17h5.732v.42l-.675.17c-1.012.167-.843 1.347-.59 2.527l2.36 12.307 2.36-11.717c.422-2.444.253-3.034-.758-3.203l-.675-.168V.17h4.3v.42l-.59.17c-.76.167-.928.757-1.35 2.865l-3.877 18.29h-.843l-2.95-14.33-2.697 14.33h-1.012L46.83 3.036zM33.683 21.24h2.192c2.865 0 3.37-3.202 3.708-6.573h.506v7.164H29.215v-.42l.674-.17c.59-.167.926-.504.926-1.347v-17.7c0-.844-.253-1.182-.927-1.35l-.675-.17V.17H39.75v7.163h-.505C38.908 3.963 38.235.76 35.79.76h-2.192v9.44h1.01c1.35-.085 1.856-1.265 2.193-3.962h.507v8.766H36.8c-.252-3.456-.842-3.962-2.275-4.046h-1.012V21.24h.17zm-18.88.17l.673-.17c.59-.167.927-.504.927-1.347V2.107c0-.843-.253-1.18-.927-1.348L14.8.59V.17h6.154v.42l-.76.17c-.59.167-.926.42-.926 1.263v8.26h4.805V2.108c0-.843-.337-1.096-.927-1.264l-.76-.253V.17h6.154v.42l-.674.17c-.59.167-.927.42-.927 1.347v17.7c0 .844.252 1.266.926 1.35l.674.17v.42h-6.153v-.42l.76-.17c.59-.168.926-.506.926-1.35v-8.68h-4.72v8.766c0 .843.337 1.264.927 1.348l.758.17v.42H14.8v-.42zm-4.806-1.517c0 1.01.253 1.18.927 1.348l1.012.254v.422H5.36v-.422l.843-.168c.59-.17.927-.506.927-1.35V.76h-.674c-1.94 0-2.782 3.202-2.95 6.573H3V.17h11.126v7.163h-.505C13.37 3.963 12.61.76 10.67.76h-.674v19.133z" fill="#231F20"/></svg>